# xmcd
#
# Track frame offsets:
#	150
#	15252
#	38837
#	60046
#	80624
#	97637
#	116404
#	135836
#	154552
#	166325
#	178991
#	195548
#	218583
#	239315
#	257814
#	286182
#	303388
#
# Disc length: 4243
#
# Revision: 1
# Processed by: cddbd v1.5.1PL0 Copyright (c) Steve Scherf et al.
# Submitted via: CDex 1.51
# Normalized: r0:TDELIM( - )
#
DISCID=c7109111
DTITLE=Various Artist - Vocal Jazz
DYEAR=2004
DGENRE=Jazz
TTITLE0=Norah Jones - Sunrise
TTITLE1=Peter Cincotti - I changed the rules
TTITLE2=Diana Krall - The look of love
TTITLE3=Jamie Cullum - All at sea
TTITLE4=Molly Johnson - Melody
TTITLE5=Eliane Elias - Call me
TTITLE6=Stacey Kent - You've got a friend
TTITLE7=Charlie Hunter feat. Norah Jones - More than this
TTITLE8=Lisa Ekdahl - It's oh so quiet
TTITLE9=Bryan Ferry - You do something to me
TTITLE10=Joss Stone - Fell in love with a boy
TTITLE11=Lizz Wright - Open your eyes, you can fly
TTITLE12=Cassandra Wilson - Fragile
TTITLE13=Nathalie Cole - I haven't got anything better to de
TTITLE14=Al Jarreau - Oasis
TTITLE15=Shazz feat. Deborah Parker - Beautiful
TTITLE16=James Brown and Dee Felice Trio feat. Mareva Whitney - Sunny
EXTD=YEAR: 2004
EXTT0=
EXTT1=
EXTT2=
EXTT3=
EXTT4=
EXTT5=
EXTT6=
EXTT7=
EXTT8=
EXTT9=
EXTT10=
EXTT11=
EXTT12=
EXTT13=
EXTT14=
EXTT15=
EXTT16=
PLAYORDER=
